<svg viewBox="0 0 330 200" xmlns="http://www.w3.org/2000/svg"><g><g><g><g><g><line x1="50" y1="178" x2="45" y2="178" style="visibility: inherit;" fill="rgb(0, 0, 0)" stroke="rgb(204, 204, 204)" stroke-width="1px"></line><line x1="50" y1="158.22222222222223" x2="45" y2="158.22222222222223" style="visibility: inherit;" fill="rgb(0, 0, 0)" stroke="rgb(204, 204, 204)" stroke-width="1px"></line><line x1="50" y1="138.44444444444446" x2="45" y2="138.44444444444446" style="visibility: inherit;" fill="rgb(0, 0, 0)" stroke="rgb(204, 204, 204)" stroke-width="1px"></line><line x1="50" y1="118.66666666666669" x2="45" y2="118.66666666666669" style="visibility: inherit;" fill="rgb(0, 0, 0)" stroke="rgb(204, 204, 204)" stroke-width="1px"></line><line x1="50" y1="98.8888888888889" x2="45" y2="98.8888888888889" style="visibility: inherit;" fill="rgb(0, 0, 0)" stroke="rgb(204, 204, 204)" stroke-width="1px"></line><line x1="50" y1="79.11111111111114" x2="45" y2="79.11111111111114" style="visibility: inherit;" fill="rgb(0, 0, 0)" stroke="rgb(204, 204, 204)" stroke-width="1px"></line><line x1="50" y1="59.33333333333334" x2="45" y2="59.33333333333334" style="visibility: inherit;" fill="rgb(0, 0, 0)" stroke="rgb(204, 204, 204)" stroke-width="1px"></line><line x1="50" y1="39.55555555555559" x2="45" y2="39.55555555555559" style="visibility: inherit;" fill="rgb(0, 0, 0)" stroke="rgb(204, 204, 204)" stroke-width="1px"></line><line x1="50" y1="19.777777777777786" x2="45" y2="19.777777777777786" style="visibility: inherit;" fill="rgb(0, 0, 0)" stroke="rgb(204, 204, 204)" stroke-width="1px"></line><line x1="50" y1="0" x2="45" y2="0" style="visibility: inherit;" fill="rgb(0, 0, 0)" stroke="rgb(204, 204, 204)" stroke-width="1px"></line></g><g transform="translate(40, 0)"><text x="0" y="178" dx="0em" dy="0.3em" style="text-anchor: end; visibility: hidden; font-family: Roboto, sans-serif; font-size: 12px; font-weight: 200;" fill="rgb(50, 49, 63)" stroke="none" stroke-width="1px">0.1</text><text x="0" y="158.22222222222223" dx="0em" dy="0.3em" style="text-anchor: end; visibility: inherit; font-family: Roboto, sans-serif; font-size: 12px; font-weight: 200;" fill="rgb(50, 49, 63)" stroke="none" stroke-width="1px">0.15</text><text x="0" y="138.44444444444446" dx="0em" dy="0.3em" style="text-anchor: end; visibility: hidden; font-family: Roboto, sans-serif; font-size: 12px; font-weight: 200;" fill="rgb(50, 49, 63)" stroke="none" stroke-width="1px">0.2</text><text x="0" y="118.66666666666669" dx="0em" dy="0.3em" style="text-anchor: end; visibility: inherit; font-family: Roboto, sans-serif; font-size: 12px; font-weight: 200;" fill="rgb(50, 49, 63)" stroke="none" stroke-width="1px">0.25</text><text x="0" y="98.8888888888889" dx="0em" dy="0.3em" style="text-anchor: end; visibility: hidden; font-family: Roboto, sans-serif; font-size: 12px; font-weight: 200;" fill="rgb(50, 49, 63)" stroke="none" stroke-width="1px">0.3</text><text x="0" y="79.11111111111114" dx="0em" dy="0.3em" style="text-anchor: end; visibility: inherit; font-family: Roboto, sans-serif; font-size: 12px; font-weight: 200;" fill="rgb(50, 49, 63)" stroke="none" stroke-width="1px">0.35</text><text x="0" y="59.33333333333334" dx="0em" dy="0.3em" style="text-anchor: end; visibility: hidden; font-family: Roboto, sans-serif; font-size: 12px; font-weight: 200;" fill="rgb(50, 49, 63)" stroke="none" stroke-width="1px">0.4</text><text x="0" y="39.55555555555559" dx="0em" dy="0.3em" style="text-anchor: end; visibility: inherit; font-family: Roboto, sans-serif; font-size: 12px; font-weight: 200;" fill="rgb(50, 49, 63)" stroke="none" stroke-width="1px">0.45</text><text x="0" y="19.777777777777786" dx="0em" dy="0.3em" style="text-anchor: end; visibility: hidden; font-family: Roboto, sans-serif; font-size: 12px; font-weight: 200;" fill="rgb(50, 49, 63)" stroke="none" stroke-width="1px">0.5</text><text x="0" y="0" dx="0em" dy="0.3em" style="text-anchor: end; visibility: hidden; font-family: Roboto, sans-serif; font-size: 12px; font-weight: 200;" fill="rgb(50, 49, 63)" stroke="none" stroke-width="1px">0.55</text></g><line x1="50" y1="0" x2="50" y2="178" fill="rgb(0, 0, 0)" stroke="rgb(204, 204, 204)" stroke-width="1px"></line></g></g><g transform="translate(50, 0)" clip-path="url(#clip_0)"><clipPath id="clip_0"><rect width="280" height="178"></rect></clipPath><g><g><g><line x1="0" y1="0" x2="0" y2="178" fill="rgb(0, 0, 0)" stroke="rgb(60, 60, 60)" stroke-width="1px" opacity="0.25"></line><line x1="40" y1="0" x2="40" y2="178" fill="rgb(0, 0, 0)" stroke="rgb(60, 60, 60)" stroke-width="1px" opacity="0.25"></line><line x1="80" y1="0" x2="80" y2="178" fill="rgb(0, 0, 0)" stroke="rgb(60, 60, 60)" stroke-width="1px" opacity="0.25"></line><line x1="120" y1="0" x2="120" y2="178" fill="rgb(0, 0, 0)" stroke="rgb(60, 60, 60)" stroke-width="1px" opacity="0.25"></line><line x1="160" y1="0" x2="160" y2="178" fill="rgb(0, 0, 0)" stroke="rgb(60, 60, 60)" stroke-width="1px" opacity="0.25"></line><line x1="200" y1="0" x2="200" y2="178" fill="rgb(0, 0, 0)" stroke="rgb(60, 60, 60)" stroke-width="1px" opacity="0.25"></line><line x1="240" y1="0" x2="240" y2="178" fill="rgb(0, 0, 0)" stroke="rgb(60, 60, 60)" stroke-width="1px" opacity="0.25"></line><line x1="280" y1="0" x2="280" y2="178" fill="rgb(0, 0, 0)" stroke="rgb(60, 60, 60)" stroke-width="1px" opacity="0.25"></line></g><g><line x1="0" y1="178" x2="280" y2="178" fill="rgb(0, 0, 0)" stroke="rgb(60, 60, 60)" stroke-width="1px" opacity="0.25"></line><line x1="0" y1="158.22222222222223" x2="280" y2="158.22222222222223" fill="rgb(0, 0, 0)" stroke="rgb(60, 60, 60)" stroke-width="1px" opacity="0.25"></line><line x1="0" y1="138.44444444444446" x2="280" y2="138.44444444444446" fill="rgb(0, 0, 0)" stroke="rgb(60, 60, 60)" stroke-width="1px" opacity="0.25"></line><line x1="0" y1="118.66666666666669" x2="280" y2="118.66666666666669" fill="rgb(0, 0, 0)" stroke="rgb(60, 60, 60)" stroke-width="1px" opacity="0.25"></line><line x1="0" y1="98.8888888888889" x2="280" y2="98.8888888888889" fill="rgb(0, 0, 0)" stroke="rgb(60, 60, 60)" stroke-width="1px" opacity="0.25"></line><line x1="0" y1="79.11111111111114" x2="280" y2="79.11111111111114" fill="rgb(0, 0, 0)" stroke="rgb(60, 60, 60)" stroke-width="1px" opacity="0.25"></line><line x1="0" y1="59.33333333333334" x2="280" y2="59.33333333333334" fill="rgb(0, 0, 0)" stroke="rgb(60, 60, 60)" stroke-width="1px" opacity="0.25"></line><line x1="0" y1="39.55555555555559" x2="280" y2="39.55555555555559" fill="rgb(0, 0, 0)" stroke="rgb(60, 60, 60)" stroke-width="1px" opacity="0.25"></line><line x1="0" y1="19.777777777777786" x2="280" y2="19.777777777777786" fill="rgb(0, 0, 0)" stroke="rgb(60, 60, 60)" stroke-width="1px" opacity="0.25"></line><line x1="0" y1="0" x2="280" y2="0" fill="rgb(0, 0, 0)" stroke="rgb(60, 60, 60)" stroke-width="1px" opacity="0.25"></line></g></g></g><g><g><line x1="0" y1="217.55555555555557" x2="280" y2="217.55555555555557" fill="rgb(0, 0, 0)" stroke="rgb(153, 153, 153)" stroke-width="1.5px"></line></g></g><g><g><line x1="40" y1="0" x2="40" y2="178" fill="rgb(0, 0, 0)" stroke="rgb(153, 153, 153)" stroke-width="1.5px"></line></g></g><g><g><g><g><g><path stroke="rgb(0, 119, 187)" stroke-width="2px" d="M40,24.534757190280494L48,58.49981954031521L56,70.70087604133451L64,79.70420855118168L72,79.96586278832606L80,85.6565397505523L88,87.66372781476271L96,85.08671184056445L104,83.0488997878777L112,76.30122132961793L120,75.55276837514043L128,77.30928106568385L136,80.07619787346594L144,71.46722376711995L152,69.46039876590483L160,66.92708985091052L168,65.33305091717591L176,62.89886589598838L184,64.92500648197262L192,66.54546168032843L200,60.0824818038502L208,53.72795115102145L216,46.190165042324054L224,45.54690565874876L232.00000000000003,41.19206793660545L240,34.259020144777416L248,29.72426387564078L256,29.306872924854616L264,23.960401849023604L272,18.03813408980767" style="fill: none;" fill="none"></path></g><g><path stroke="rgb(255, 112, 67)" stroke-width="2px" d="M40,-5.5019685427347556L48,37.74736452764937L56,60.49633949684181L64,75.21268165374511L72,86.53007495626656L80,95.57799071377995L88,102.26654997493698L96,107.9249632115315L104,112.98166709437282L112,117.60683056505071L120,121.32085284307317L128,124.95081763812374L136,128.50804359717148L144,131.34578713929773L152,133.64938892873798L160,135.92867488901499L168,138.34233575546995L176,140.7287545678596L184,142.8389093338306L192,144.60103946772333L200,146.3407071940317L208,148.063119431128L216,149.248513969501L224,150.56201362819505L232.00000000000003,151.83214859324855L240,153.01168142129555L248,154.4272182682642L256,155.35075029750678L264,156.27298797121824L272,157.04113998212935" style="fill: none;" fill="none"></path></g><g><path stroke="rgb(51, 187, 238)" stroke-width="2px" d="M40,53.64410723580256L48,44.486304740111045L56,62.8475013546933L64,70.9743853973992L72,79.79746427910307L80,85.09871547984928L88,89.00080079273758L96,91.17830988926927L104,90.18016159005906L112,90.52263600852696L120,90.58433574797557L128,87.11991580954736L136,82.89929461734677L144,75.91473243929408L152,78.50034285992793L160,76.71063440946794L168,66.73946383364799L176,52.78740132023706L184,43.19301301079262L192,43.3891563580124L200,28.850693776499988L208,38.5243678328128L216,37.54344412767526L224,29.481339329931835L232.00000000000003,26.841393858970473L240,5.608161606598228L248,14.941436199482713L256,18.35929505993038L264,15.17328394531036L272,9.884269995279716" style="fill: none;" fill="none"></path></g><g><path stroke="rgb(204, 51, 17)" stroke-width="2px" d="M40,-3.9094871415032193L48,38.57430241505306L56,61.27735646565756L64,76.12849900233591L72,87.10052865468342L80,95.64394227121264L88,102.60304969859396L96,108.50797533504874L104,113.57126644830477L112,117.85960579377426L120,121.80133244473191L128,125.52926797122707L136,128.60424292906436L144,131.7446854810843L152,134.41042737785259L160,136.90926562419511L168,139.37900357348494L176,141.60159027754227L184,143.60694643584335L192,145.22658158431983L200,146.92529112851417L208,148.53892285192066L216,150.03980893322708L224,151.55132779303423L232.00000000000003,152.43717553496535L240,154.1004133863712L248,155.17026168987184L256,156.34391771835703L264,157.1548649780715L272,158.02324068680187" style="fill: none;" fill="none"></path></g></g></g></g><g opacity="0.2"><g><g><g><path stroke="rgb(0, 119, 187)" stroke-width="2px" d="M40,24.534757190280494L48,78.87885695033604L56,82.41389028231305L64,90.29212758276199L72,80.30747856034174L80,93.52879463301765L88,90.53403886159263L96,81.32939781083002L104,80.04352283477785L112,66.28170522054037L120,74.43687735663521L128,79.93449123700462L136,84.21753862169057L144,58.57062848409018L152,66.45252021153769L160,63.128913164138794L168,62.9426670604282L176,59.24820640352038L184,67.96390869882372L192,68.97599636183845L200,50.38836643430923L208,44.19636427031624L216,34.88363469971552L224,44.58202420340645L232.00000000000003,34.659842305713234L240,23.85947802331715L248,22.9221410751343L256,28.680787139468727L264,15.940700160132522L272,9.15473572413128" style="fill: none;" fill="none"></path></g><g><path stroke="rgb(255, 112, 67)" stroke-width="2px" d="M40,-5.5019685427347556L48,63.69696436987984L56,82.33535546726652L64,92.51910003026329L72,101.30606365203857L80,108.09451545609369L88,111.8312967353397L96,116.1749840312534L104,120.43932310740155L112,124.4746592839559L120,126.85820035139722L128,130.3760107225842L136,133.8322675757938L144,135.59684301747217L152,137.1020838154687L160,139.34599630037945L168,141.96180567476486L176,144.3077768749661L184,146.00382002194723L192,147.24407360288834L200,148.95011337598166L208,150.6466811100642L216,151.02658237351312L224,152.53224755658044L232.00000000000003,153.7373420132531L240,154.78097563319736L248,156.55051991674634L256,156.73604692353143L264,157.6563436322742L272,158.19336757395" style="fill: none;" fill="none"></path></g><g><path stroke="rgb(51, 187, 238)" stroke-width="2px" d="M40,53.64410723580256L48,38.991623242696136L56,80.47425010469227L64,80.53160103162132L72,91.3168760670556L80,92.43225434091359L88,94.58084522353279L96,94.35313905609979L104,88.7080867290497L112,91.03117060661317L120,90.67632574505278L128,81.94213912222122L136,76.58214388953316L144,65.45157265663147L152,82.37571920288934L160,74.02733397483826L168,51.78692743513321L176,31.862849977281382L184,28.802892155117473L192,43.683353450563224L200,7.043797228071442L208,53.034560600916556L216,36.07207793659636L224,17.388277636633987L232.00000000000003,22.881494416130923L240,-26.24159622192379L248,28.94132420751785L256,23.486078103383388L264,10.394270208146859L272,1.9507519933912665" style="fill: none;" fill="none"></path></g><g><path stroke="rgb(204, 51, 17)" stroke-width="2px" d="M40,-3.9094871415032193L48,64.06457614898682L56,83.07228835423788L64,93.59344262546965L72,101.42561056878834L80,107.46255893177458L88,112.55468466546803L96,117.11741360028586L104,121.03863734669157L112,124.22728994157582L120,127.67817125055527L128,131.10088400046033L136,133.2066650390625L144,136.44919685522717L152,138.40590674347348L160,140.65576061937546L168,143.08256538709006L176,144.93490601910486L184,146.6146751774682L192,147.65588626596664L200,149.47326228353714L208,150.9593173397912L216,152.29110842280917L224,153.8185881773631L232.00000000000003,153.7659408516354L240,156.59526307053036L248,156.77503140767416L256,158.10439995924634L264,158.37128512064618L272,159.32580376995935" style="fill: none;" fill="none"></path></g></g></g></g></g></g><g transform="translate(50, 178)" clip-path="url(#clip_1)"><clipPath id="clip_1"><rect width="280" height="22"></rect></clipPath><g><g><line x1="0" y1="0" x2="0" y2="5" style="visibility: inherit;" fill="rgb(0, 0, 0)" stroke="rgb(204, 204, 204)" stroke-width="1px"></line><line x1="40" y1="0" x2="40" y2="5" style="visibility: inherit;" fill="rgb(0, 0, 0)" stroke="rgb(204, 204, 204)" stroke-width="1px"></line><line x1="80" y1="0" x2="80" y2="5" style="visibility: inherit;" fill="rgb(0, 0, 0)" stroke="rgb(204, 204, 204)" stroke-width="1px"></line><line x1="120" y1="0" x2="120" y2="5" style="visibility: inherit;" fill="rgb(0, 0, 0)" stroke="rgb(204, 204, 204)" stroke-width="1px"></line><line x1="160" y1="0" x2="160" y2="5" style="visibility: inherit;" fill="rgb(0, 0, 0)" stroke="rgb(204, 204, 204)" stroke-width="1px"></line><line x1="200" y1="0" x2="200" y2="5" style="visibility: inherit;" fill="rgb(0, 0, 0)" stroke="rgb(204, 204, 204)" stroke-width="1px"></line><line x1="240" y1="0" x2="240" y2="5" style="visibility: inherit;" fill="rgb(0, 0, 0)" stroke="rgb(204, 204, 204)" stroke-width="1px"></line><line x1="280" y1="0" x2="280" y2="5" style="visibility: inherit;" fill="rgb(0, 0, 0)" stroke="rgb(204, 204, 204)" stroke-width="1px"></line></g><g transform="translate(0, 8)"><text x="0" y="0" dx="0em" dy="0.95em" style="text-anchor: middle; visibility: hidden; font-family: Roboto, sans-serif; font-size: 12px; font-weight: 200;" fill="rgb(50, 49, 63)" stroke="none" stroke-width="1px">-5</text><text x="40" y="0" dx="0em" dy="0.95em" style="text-anchor: middle; visibility: inherit; font-family: Roboto, sans-serif; font-size: 12px; font-weight: 200;" fill="rgb(50, 49, 63)" stroke="none" stroke-width="1px">0</text><text x="80" y="0" dx="0em" dy="0.95em" style="text-anchor: middle; visibility: inherit; font-family: Roboto, sans-serif; font-size: 12px; font-weight: 200;" fill="rgb(50, 49, 63)" stroke="none" stroke-width="1px">5</text><text x="120" y="0" dx="0em" dy="0.95em" style="text-anchor: middle; visibility: inherit; font-family: Roboto, sans-serif; font-size: 12px; font-weight: 200;" fill="rgb(50, 49, 63)" stroke="none" stroke-width="1px">10</text><text x="160" y="0" dx="0em" dy="0.95em" style="text-anchor: middle; visibility: inherit; font-family: Roboto, sans-serif; font-size: 12px; font-weight: 200;" fill="rgb(50, 49, 63)" stroke="none" stroke-width="1px">15</text><text x="200" y="0" dx="0em" dy="0.95em" style="text-anchor: middle; visibility: inherit; font-family: Roboto, sans-serif; font-size: 12px; font-weight: 200;" fill="rgb(50, 49, 63)" stroke="none" stroke-width="1px">20</text><text x="240" y="0" dx="0em" dy="0.95em" style="text-anchor: middle; visibility: inherit; font-family: Roboto, sans-serif; font-size: 12px; font-weight: 200;" fill="rgb(50, 49, 63)" stroke="none" stroke-width="1px">25</text><text x="280" y="0" dx="0em" dy="0.95em" style="text-anchor: middle; visibility: hidden; font-family: Roboto, sans-serif; font-size: 12px; font-weight: 200;" fill="rgb(50, 49, 63)" stroke="none" stroke-width="1px">30</text></g><line x1="0" y1="0" x2="280" y2="0" fill="rgb(0, 0, 0)" stroke="rgb(204, 204, 204)" stroke-width="1px"></line></g></g></g></g></svg>